<svg xmlns="http://www.w3.org/2000/svg" viewBox="0 0 120 130">
  <defs>
    <linearGradient id="bg" x1="0" x2="1" y1="0" y2="1">
      <stop offset="0" stop-color="#e7d3b9"/>
      <stop offset="1" stop-color="#ad7b53"/>
    </linearGradient>
    <linearGradient id="desk" x1="0" x2="0" y1="0" y2="1">
      <stop offset="0" stop-color="#fff8ec"/>
      <stop offset="1" stop-color="#ddd3c2"/>
    </linearGradient>
  </defs>
  <rect width="120" height="130" fill="#dfd4c6"/>
  <path d="M0 20 120 0v130H0Z" fill="url(#bg)"/>
  <path d="M0 8h120L67 31H0Z" fill="#eee4d2"/>
  <path d="M8 17 112 0" stroke="#fff4de" stroke-width="3" opacity=".62"/>
  <rect x="64" y="32" width="48" height="54" fill="#5a3d2a" opacity=".28"/>
  <g opacity=".24" stroke="#f4dcad">
    <path d="M70 32v54"/><path d="M78 32v54"/><path d="M86 32v54"/>
    <path d="M94 32v54"/><path d="M102 32v54"/>
  </g>
  <g transform="translate(69 50)">
    <circle cx="6" cy="6" r="6" fill="#0bbf8a"/>
    <path d="M6 3v6M3 6h6" stroke="#fff" stroke-width="1.5" stroke-linecap="round"/>
    <rect x="16" y="1" width="35" height="5" rx="1" fill="#27364a" opacity=".75"/>
    <rect x="16" y="10" width="28" height="3" rx="1" fill="#27364a" opacity=".42"/>
  </g>
  <path d="M29 75h80c4 0 7 3 7 7v23H24V80c0-3 2-5 5-5Z" fill="url(#desk)"/>
  <path d="M26 101h91v29H20v-23c0-4 2-6 6-6Z" fill="#e9dfcf"/>
  <g transform="translate(9 58)">
    <path d="M16 65c-2-18-2-35 2-49" stroke="#806d44" stroke-width="4" stroke-linecap="round"/>
    <path d="M17 18C4 22 1 34 10 38c6-4 7-12 7-20Z" fill="#2d8e5a"/>
    <path d="M20 15c16 3 21 14 10 21-7-4-9-12-10-21Z" fill="#3aa061"/>
    <path d="M15 31C4 39 5 52 18 51c3-8 2-14-3-20Z" fill="#277a50"/>
    <path d="M23 34c14 5 17 17 5 20-6-5-7-12-5-20Z" fill="#45a96b"/>
    <rect x="7" y="65" width="22" height="10" rx="2" fill="#5e5148"/>
  </g>
</svg>
