<svg xmlns="http://www.w3.org/2000/svg" viewBox="0 0 58 58">
  <circle cx="29" cy="29" r="29" fill="#f0f2f4"/>
  <path d="M14 58c2-12 7.6-19 15-19s13 7 15 19H14Z" fill="#fff"/>
  <path d="M21 58h16l-2.6-14H23.6L21 58Z" fill="#e8f4ff"/>
  <path d="M26 43h6l-3 5.1L26 43Z" fill="#0d68ad"/>
  <path d="M27 48h4l1.3 10h-6.6L27 48Z" fill="#0e73bf"/>
  <circle cx="29" cy="24" r="11.5" fill="#f1bf9a"/>
  <path d="M18.5 24.5c.8-9 5.7-13.8 12-13.8 6.9 0 10.9 5.2 10.4 14.1-4.8-.9-9.3-3.1-12.7-6.6-2 3.2-5.3 5.1-9.7 6.3Z" fill="#222827"/>
  <path d="M23.4 26.4h4.2M31.2 26.4h4.2" stroke="#14202b" stroke-width="1.6" stroke-linecap="round"/>
  <path d="M26.6 33c1.7 1.1 3.6 1.1 5.4 0" stroke="#9e573b" stroke-width="1.4" stroke-linecap="round"/>
  <g fill="none" stroke="#17222c" stroke-width="1.2">
    <rect x="20.8" y="23.2" width="7.5" height="5.4" rx="1.8"/>
    <rect x="30.4" y="23.2" width="7.5" height="5.4" rx="1.8"/>
    <path d="M28.3 25.9h2.1"/>
  </g>
</svg>
